<svg width="32" height="32" viewBox="0 0 32 32" fill="none" xmlns="http://www.w3.org/2000/svg">
<path fill-rule="evenodd" clip-rule="evenodd" d="M15.963 31.0103C7.45176 31.0103 0.557617 24.0631 0.557617 15.5042C0.557617 14.869 0.597053 14.2418 0.675933 13.6304C0.723261 13.154 0.802144 12.6856 0.912576 12.2251C1.77237 8.18382 4.194 4.73007 7.52276 2.53873C7.87772 2.30054 8.24056 2.07823 8.6113 1.8718C10.7963 0.680855 13.2968 -0.00195312 15.963 -0.00195312C24.4663 -0.00195312 31.3604 6.94524 31.3604 15.5042C31.3604 19.871 29.5698 23.817 26.6749 26.6356C23.9062 29.343 20.1278 31.0103 15.963 31.0103ZM20.6913 22.9817C20.0466 22.3223 20.1638 21.1685 20.9477 20.3956C21.7353 19.6264 22.8965 19.5714 23.5376 20.2088C24.1787 20.8461 24.0614 22 23.2775 22.7729C22.4936 23.5458 21.336 23.641 20.6913 22.9817ZM28.4752 19.6248C27.9843 20.9691 27.9807 22.1889 28.4752 22.3794C28.9697 22.5698 29.7537 21.6101 30.2445 20.2658C30.7354 18.9215 30.7354 17.7017 30.2445 17.5112C29.7537 17.3208 28.9624 18.2805 28.4752 19.6248ZM29.241 7.68812C29.9553 8.93354 30.1714 10.1387 29.7245 10.3987C29.2776 10.6478 28.3289 9.86761 27.6145 8.62219C26.9002 7.37677 26.6804 6.17165 27.131 5.91157C27.5816 5.6515 28.5267 6.44271 29.241 7.68812ZM16.246 13.0515C15.8519 13.0515 15.4666 13.1684 15.1389 13.3873C14.8112 13.6063 14.5558 13.9175 14.405 14.2816C14.2541 14.6457 14.2147 15.0464 14.2916 15.4329C14.3684 15.8194 14.5582 16.1745 14.8369 16.4532C15.1156 16.7319 15.4707 16.9216 15.8573 16.9985C16.2438 17.0754 16.6445 17.036 17.0086 16.8851C17.3728 16.7343 17.684 16.4789 17.903 16.1512C18.1219 15.8235 18.2388 15.4383 18.2388 15.0442C18.2388 14.5157 18.0289 14.0088 17.6551 13.6351C17.2814 13.2614 16.7745 13.0515 16.246 13.0515ZM1.52048 17.5161C1.26039 16.1058 1.48385 14.8933 1.99303 14.8018C2.50221 14.7139 3.10664 15.7798 3.36673 17.19C3.62681 18.6003 3.40702 19.8128 2.89417 19.9043C2.38133 19.9959 1.78056 18.9263 1.52048 17.5161ZM15.1699 22.0875C14.0709 21.9776 13.1112 22.6333 13.0233 23.5527C12.9354 24.4721 13.7559 25.2963 14.8549 25.4025C15.9538 25.5088 16.9099 24.8531 17.0015 23.9373C17.0931 23.0216 16.2652 22.1938 15.1699 22.0875ZM25.1803 16.7414C24.2645 16.811 23.4513 15.9795 23.3671 14.8806C23.2828 13.7854 23.9202 12.8367 24.8543 12.7671C25.7884 12.6975 26.6017 13.5253 26.6859 14.6242C26.7702 15.7231 26.0961 16.6718 25.1803 16.7414ZM20.5939 27.3551C19.2495 27.8459 18.3044 28.6371 18.4802 29.1243C18.6561 29.6115 19.8906 29.6078 21.235 29.1243C22.5794 28.6408 23.5281 27.8459 23.3486 27.3587C23.1691 26.8716 21.9493 26.8679 20.5939 27.3551ZM6.32141 6.55933C5.40195 7.65457 4.33596 8.27361 3.93668 7.94028C3.54105 7.60695 3.96964 6.45311 4.88544 5.35421C5.80124 4.25531 6.86723 3.63626 7.26651 3.96959C7.6658 4.30293 7.24087 5.46409 6.32141 6.55933ZM6.29162 11.8683C5.9949 12.9269 6.47112 13.9855 7.35761 14.2346C8.2441 14.4837 9.1892 13.8207 9.49691 12.7694C9.80462 11.7181 9.31375 10.6485 8.42726 10.4031C7.54077 10.1577 6.58467 10.806 6.29162 11.8683ZM7.41956 20.6267C6.79681 19.7183 6.90671 18.5607 7.66499 18.0443C8.41961 17.5241 9.54055 17.8794 10.1633 18.7659C10.786 19.6523 10.6761 20.8098 9.91785 21.33C9.15957 21.8501 8.0423 21.5351 7.41956 20.6267ZM20.6997 9.48528C21.5936 10.1263 22.7511 10.0384 23.2859 9.29115C23.8208 8.54389 23.5314 7.41935 22.6339 6.77833C21.7364 6.1373 20.5825 6.22521 20.0477 6.97247C19.5129 7.71972 19.8023 8.84426 20.6997 9.48528ZM8.67381 27.9145C7.43199 27.1966 6.63708 26.2552 6.89717 25.8047C7.15725 25.3578 8.3661 25.5702 9.60792 26.2882C10.8497 27.0061 11.6447 27.9512 11.3846 28.3981C11.1245 28.8449 9.91563 28.6325 8.67381 27.9145ZM16.3684 1.98807C17.8007 1.98807 18.9619 1.57049 18.9619 1.05034C18.9619 0.530195 17.8007 0.112614 16.3684 0.112614C14.9361 0.112614 13.7785 0.533858 13.7785 1.05034C13.7785 1.56682 14.9398 1.98807 16.3684 1.98807ZM14.7847 6.06844C15.1657 6.90727 14.6602 7.95122 13.6564 8.40909C12.6564 8.86331 11.5318 8.55561 11.1545 7.71679C10.7772 6.87796 11.2827 5.83034 12.2827 5.37613C13.2828 4.92192 14.4037 5.22961 14.7847 6.06844Z" fill="#70C6D2"/>
</svg>
