<svg width="24" height="22" viewBox="0 0 24 22" fill="none" xmlns="http://www.w3.org/2000/svg">
<path d="M24 7.38801C24 7.28503 23.9755 7.18695 23.9215 7.09868L20.3514 0.821603C20.2485 0.640156 20.0523 0.522461 19.8414 0.522461H4.15366C3.94279 0.522461 3.74663 0.635252 3.64365 0.821603L0.0784634 7.09868C0.0294238 7.18695 0 7.28503 0 7.38801C0 8.79545 0.848386 10.0018 2.05966 10.5364V20.8886C2.05966 21.2123 2.32448 21.4771 2.64814 21.4771H21.347C21.6706 21.4771 21.9354 21.2123 21.9354 20.8886V10.6099C21.9354 10.5854 21.9354 10.5658 21.9305 10.5462C23.1467 10.0116 24 8.80035 24 7.38801ZM4.49693 1.70432H19.4982L22.2885 6.61318H1.71148L4.49693 1.70432ZM17.0805 7.78523C16.8942 8.84449 15.9673 9.64874 14.8541 9.64874C13.7409 9.64874 12.8141 8.84449 12.6277 7.78523H17.0805ZM11.3772 7.78523C11.1908 8.84449 10.264 9.64874 9.1508 9.64874C8.0376 9.64874 7.11075 8.84449 6.91949 7.78523H11.3772ZM1.21618 7.78523H5.67389C5.48754 8.84449 4.55578 9.64874 3.44258 9.64874C2.32938 9.65364 1.40253 8.84449 1.21618 7.78523ZM9.88639 20.3001H6.50266V13.9495C6.50266 13.4885 6.87536 13.1109 7.34123 13.1109H9.05272C9.51369 13.1109 9.89129 13.4836 9.89129 13.9495V20.3001H9.88639ZM20.7585 20.3001H11.0633V13.9495C11.0633 12.8412 10.161 11.934 9.04781 11.934H7.33633C6.22803 11.934 5.3208 12.8363 5.3208 13.9495V20.3051H3.23662V10.8257C3.30527 10.8306 3.37393 10.8306 3.44258 10.8306C4.62934 10.8306 5.67879 10.2274 6.29669 9.31036C6.91459 10.2274 7.96404 10.8306 9.1508 10.8306C10.3376 10.8306 11.3821 10.2274 12.0049 9.31036C12.6228 10.2274 13.6723 10.8306 14.8541 10.8306C16.0409 10.8306 17.0854 10.2274 17.7033 9.31036C18.3212 10.2274 19.3707 10.8306 20.5574 10.8306C20.6261 10.8306 20.6898 10.8257 20.7585 10.8257V20.3001ZM20.5574 9.65364C19.4442 9.65364 18.5174 8.84939 18.331 7.79014H22.7887C22.5975 8.84449 21.6706 9.65364 20.5574 9.65364Z" fill="black"/>
</svg>
