<svg width="25" height="24" viewBox="0 0 25 24" fill="none" xmlns="http://www.w3.org/2000/svg">
<g clip-path="url(#clip0_2319_5389)">
<path d="M13.1 4.69925C13.022 4.7001 12.9447 4.68558 12.8723 4.65653C12.8 4.62747 12.7341 4.58446 12.6784 4.52993C12.6227 4.4754 12.5782 4.41043 12.5476 4.33873C12.517 4.26703 12.5008 4.19001 12.5 4.11205C12.5 1.84005 14.3816 5.4318e-05 16.6984 5.4318e-05C16.7764 -0.00100249 16.8539 0.0133709 16.9263 0.0423482C16.9987 0.0713255 17.0647 0.114335 17.1205 0.168904C17.1762 0.223473 17.2207 0.288525 17.2512 0.360321C17.2817 0.432116 17.2978 0.509239 17.2984 0.587254C17.2984 2.85925 15.4184 4.69925 13.1 4.69925Z" fill="black"/>
<path d="M13.0999 4.69925C13.0219 4.7001 12.9446 4.68558 12.8722 4.65653C12.7999 4.62747 12.734 4.58446 12.6783 4.52993C12.6226 4.4754 12.5781 4.41043 12.5475 4.33873C12.5169 4.26703 12.5007 4.19001 12.4999 4.11205C12.4999 1.84005 14.3815 5.4318e-05 16.6983 5.4318e-05C16.7763 -0.00100249 16.8538 0.0133709 16.9262 0.0423482C16.9986 0.0713255 17.0646 0.114335 17.1204 0.168904C17.1761 0.223473 17.2206 0.288525 17.2511 0.360321C17.2816 0.432116 17.2977 0.509239 17.2983 0.587254C17.2983 2.85925 15.4183 4.69925 13.0999 4.69925ZM21.8599 17.0689C22.0919 17.2385 22.1671 17.5489 22.0359 17.8017C19.9239 21.9393 18.2391 24.0001 16.6999 24.0001C15.9831 24.0001 15.2791 23.7729 14.5927 23.3313C14.1 23.015 13.5295 22.841 12.9442 22.8286C12.3589 22.8161 11.7815 22.9657 11.2759 23.2609C10.4439 23.7489 9.6519 24.0001 8.8999 24.0001C6.6359 24.0001 2.8999 17.1729 2.8999 13.4273C2.8999 9.42726 5.0423 6.37765 8.2999 6.37765C9.8327 6.37765 11.1559 6.59845 12.2679 7.04805C12.7383 7.23685 13.2711 7.22405 13.7303 7.00805C14.6327 6.58245 15.8231 6.37765 17.2983 6.37765C19.1015 6.37765 20.6743 7.25765 21.9799 8.96165C22.0271 9.0231 22.0615 9.0934 22.0811 9.1684C22.1007 9.24339 22.105 9.32154 22.0938 9.39823C22.0826 9.47491 22.0561 9.54858 22.016 9.61485C21.9758 9.68113 21.9227 9.73866 21.8599 9.78405C20.4023 10.8561 19.6999 12.0577 19.6999 13.4273C19.6999 14.7953 20.4023 15.9985 21.8599 17.0689Z" fill="black"/>
<path d="M21.8599 17.0686C22.0919 17.2382 22.1671 17.5486 22.0359 17.8014C19.9239 21.939 18.2391 23.9998 16.6999 23.9998C15.9831 23.9998 15.2791 23.7726 14.5927 23.331C14.1 23.0147 13.5295 22.8408 12.9442 22.8284C12.3589 22.8159 11.7815 22.9655 11.2759 23.2606C10.4439 23.7486 9.6519 23.9998 8.8999 23.9998C6.6359 23.9998 2.8999 17.1726 2.8999 13.427C2.8999 9.42704 5.0423 6.37744 8.2999 6.37744C9.8327 6.37744 11.1559 6.59824 12.2679 7.04784C12.7383 7.23664 13.2711 7.22384 13.7303 7.00784C14.6327 6.58224 15.8231 6.37744 17.2983 6.37744C19.1015 6.37744 20.6743 7.25744 21.9799 8.96144C22.0271 9.02289 22.0615 9.09319 22.0811 9.16818C22.1007 9.24317 22.105 9.32133 22.0938 9.39801C22.0826 9.4747 22.0561 9.54836 22.016 9.61464C21.9758 9.68091 21.9227 9.73845 21.8599 9.78384C20.4023 10.8558 19.6999 12.0574 19.6999 13.427C19.6999 14.795 20.4023 15.9982 21.8599 17.0686Z" fill="black"/>
</g>
<defs>
<clipPath id="clip0_2319_5389">
<rect width="24" height="24" fill="white" transform="translate(0.5)"/>
</clipPath>
</defs>
</svg>
