<svg width="240" height="47" viewBox="0 0 240 47" fill="none" xmlns="http://www.w3.org/2000/svg">
<path d="M67.4976 26.2992H63.953V33.8707H58.1494V12.6475H67.4909C72.7253 12.6475 75.5423 15.9957 75.5423 19.4734C75.5423 22.951 72.732 26.2992 67.4976 26.2992ZM67.232 17.326H63.953V21.6117H67.232C68.8235 21.6117 69.7521 20.5671 69.7521 19.4644C69.7521 18.3617 68.8235 17.3283 67.232 17.3283V17.326Z" fill="black"/>
<path d="M77.6025 33.8729V12.6475H83.4061V33.8729H77.6025Z" fill="black"/>
<path d="M95.0292 34.0515C92.2792 34.0515 90.1922 33.2167 88.469 31.6653C85.9846 29.4332 86.085 26.4488 86.085 23.2591C86.085 20.0693 85.9846 17.0894 88.469 14.8528C90.1966 13.3037 92.2792 12.46 95.0292 12.46C99.4935 12.46 103.114 14.6921 103.973 19.3796H98.0783C97.7123 18.1876 96.9824 17.114 95.0627 17.114C94.0024 17.114 93.2078 17.5024 92.777 18.0068C92.2458 18.6318 91.8841 19.3774 91.8841 23.2524C91.8841 27.1274 92.248 27.8729 92.777 28.5001C93.2078 29.0068 94.0024 29.393 95.0627 29.393C96.9824 29.393 97.7123 28.3193 98.0783 27.1251H103.973C103.114 31.8149 99.5025 34.0515 95.0292 34.0515Z" fill="black"/>
<path d="M118.848 33.8729L113.415 25.1675L111.426 27.2234V33.8729H105.696V12.6475H111.426V20.1586L118.252 12.6475H125.341L117.292 21.2323L125.607 33.8729H118.848Z" fill="black"/>
<path d="M126.667 33.8729V12.6475H132.471V29.2211H142.377V33.8729H126.667Z" fill="black"/>
<path d="M144.424 33.8729V12.6475H160.46V17.297H150.221V20.8439H158.968V25.4957H150.221V29.2211H160.46V33.8729H144.424Z" fill="black"/>
<path d="M163.547 33.8729V30.5403L173.618 16.3506H163.978V12.6475H179.051V15.9265L168.946 30.1765H179.051V33.8729H163.547Z" fill="black"/>
<path d="M195.98 31.7859C194.357 33.2457 192.27 34.0515 189.752 34.0515C187.234 34.0515 185.181 33.2457 183.556 31.7859C181.239 29.6988 181.27 27.3439 181.27 23.2591C181.27 19.1742 181.239 16.8193 183.556 14.7345C185.181 13.2725 187.234 12.46 189.75 12.46C192.266 12.46 194.355 13.2635 195.978 14.7256C198.297 16.8104 198.23 19.1676 198.23 23.2501C198.23 27.3327 198.299 29.6988 195.98 31.7859ZM193.263 16.672C192.429 15.8662 191.143 15.3617 189.75 15.3617C188.357 15.3617 187.071 15.8684 186.237 16.6742C185.078 17.8059 184.846 19.0001 184.846 23.2613C184.846 27.5225 185.069 28.7167 186.237 29.8506C187.067 30.6542 188.357 31.1609 189.75 31.1609C191.143 31.1609 192.429 30.6542 193.261 29.8506C194.42 28.7167 194.652 27.5247 194.652 23.2613C194.652 18.9979 194.422 17.8037 193.263 16.672Z" fill="black"/>
<path d="M217.58 33.8729L205.058 16.8506V33.8729H202.54V12.6475H204.928L217.453 29.6117V12.6475H219.971V33.8729H217.58Z" fill="black"/>
<path d="M225.688 12.6475H240V14.0783H227.478V22.4555H238.145V23.8863H227.478V32.4421H240V33.8729H225.688V12.6475Z" fill="black"/>
<path d="M30.4354 21.165C30.0269 21.5668 29.9667 22.1673 30.3015 22.5043C30.6363 22.8414 31.239 22.799 31.6408 22.3972C32.0425 21.9954 32.1095 21.395 31.7747 21.0579C31.4399 20.7208 30.8439 20.7588 30.4354 21.165Z" fill="black"/>
<path d="M34.3504 20.759C34.0959 21.4577 34.0937 22.0983 34.3504 22.1921C34.6071 22.2858 35.02 21.7925 35.27 21.0916C35.52 20.3907 35.5245 19.7523 35.27 19.6586C35.0156 19.5648 34.616 20.0492 34.3504 20.759Z" fill="black"/>
<path d="M35 15.9577C35.2343 15.8238 35.1205 15.1921 34.7477 14.547C34.375 13.9019 33.8861 13.4889 33.6517 13.6229C33.4174 13.7568 33.5312 14.3907 33.904 15.0336C34.2767 15.6764 34.7678 16.0916 35 15.9577Z" fill="black"/>
<path d="M27.9889 17.3394C27.7846 17.3416 27.5854 17.4042 27.4166 17.5194C27.2477 17.6345 27.1167 17.797 27.04 17.9865C26.9633 18.1759 26.9444 18.3838 26.9856 18.5839C27.0269 18.7841 27.1264 18.9676 27.2716 19.1113C27.4169 19.2551 27.6015 19.3526 27.8021 19.3917C28.0027 19.4308 28.2104 19.4096 28.399 19.3309C28.5876 19.2522 28.7487 19.1194 28.862 18.9494C28.9753 18.7793 29.0358 18.5795 29.0358 18.3751C29.0358 18.2382 29.0086 18.1026 28.9559 17.9762C28.9031 17.8498 28.8259 17.7351 28.7285 17.6388C28.6311 17.5425 28.5156 17.4664 28.3887 17.415C28.2617 17.3636 28.1259 17.3379 27.9889 17.3394Z" fill="black"/>
<path d="M20.574 18.2479C20.3106 18.2947 20.199 18.9175 20.3284 19.6608C20.4579 20.4041 20.7749 20.951 21.0427 20.9041C21.3106 20.8572 21.4177 20.2233 21.2905 19.4912C21.1633 18.759 20.8396 18.201 20.574 18.2479Z" fill="black"/>
<path d="M27.4287 22.0382C26.8595 21.9824 26.3595 22.3239 26.3126 22.7994C26.2657 23.2748 26.6899 23.7056 27.2613 23.7614C27.8327 23.8172 28.3305 23.4757 28.3774 23.0003C28.4242 22.5248 27.9979 22.094 27.4287 22.0382Z" fill="black"/>
<path d="M31.6943 18.29C31.7389 18.8614 32.1608 19.2945 32.6385 19.2587C33.1161 19.223 33.4644 18.7275 33.4197 18.1583C33.3751 17.5891 32.9554 17.1538 32.4777 17.1895C32.0001 17.2253 31.6496 17.7208 31.6943 18.29Z" fill="black"/>
<path d="M30.252 24.779C29.5533 25.0335 29.06 25.4487 29.1516 25.6987C29.2431 25.9487 29.8859 25.9509 30.5846 25.6987C31.2833 25.4464 31.7766 25.029 31.685 24.779C31.5935 24.529 30.9507 24.5246 30.252 24.779Z" fill="black"/>
<path d="M21.587 14.6789C21.7946 14.853 22.3482 14.5293 22.8281 13.9601C23.308 13.3909 23.5267 12.7883 23.3191 12.6208C23.1116 12.4534 22.558 12.7704 22.0803 13.3396C21.6026 13.9088 21.3816 14.5048 21.587 14.6789Z" fill="black"/>
<path d="M22.8103 16.7211C22.6585 17.2725 22.9062 17.8238 23.3661 17.9533C23.8259 18.0827 24.3259 17.7301 24.4821 17.1877C24.6384 16.6452 24.3861 16.085 23.9263 15.9555C23.4665 15.826 22.9643 16.1698 22.8103 16.7211Z" fill="black"/>
<path d="M23.5222 19.9356C23.1271 20.2056 23.0757 20.8061 23.3949 21.2748C23.7141 21.7436 24.3012 21.911 24.6941 21.6409C25.0869 21.3708 25.1405 20.7681 24.8235 20.3016C24.5066 19.8351 23.9173 19.6632 23.5222 19.9356Z" fill="black"/>
<path d="M30.3056 15.4822C30.7721 15.817 31.3748 15.7701 31.6449 15.3817C31.915 14.9933 31.7699 14.4085 31.3056 14.0737C30.8413 13.7389 30.2364 13.7857 29.9663 14.1764C29.6962 14.567 29.8413 15.1496 30.3056 15.4822Z" fill="black"/>
<path d="M40.6429 0H6.02679C4.42838 0 2.89545 0.634964 1.76521 1.76521C0.634964 2.89545 0 4.42838 0 6.02679V40.6362C0 42.2346 0.634964 43.7675 1.76521 44.8977C2.89545 46.028 4.42838 46.663 6.02679 46.663H40.6429C42.2413 46.663 43.7742 46.028 44.9044 44.8977C46.0347 43.7675 46.6696 42.2346 46.6696 40.6362V6.02232C46.6685 4.42469 46.033 2.8929 44.9029 1.76363C43.7727 0.63435 42.2405 -4.38307e-07 40.6429 0ZM3.4308 40.3192C3.1715 40.2553 2.89997 40.2606 2.64338 40.3347C2.38679 40.4087 2.15415 40.5489 1.96875 40.7411C1.87269 40.8407 1.79014 40.9525 1.72321 41.0737C1.70761 40.9254 1.70016 40.7763 1.70089 40.6272V6.02232C1.70207 4.87518 2.15814 3.77533 2.96909 2.96397C3.78003 2.15261 4.87965 1.69597 6.02679 1.6942H26.4487C25.2791 2.1901 24.221 2.91574 23.3371 3.82813L16.1496 11.2388C14.3638 13.0893 10.2522 18.0223 11.7835 23.0446C12.7723 26.2879 12.8705 28.4598 12.7299 29.817C12.5566 29.8915 12.399 29.9983 12.2656 30.1317C12.0787 30.3234 11.9448 30.5604 11.8771 30.8195C11.8094 31.0785 11.8102 31.3507 11.8795 31.6094L3.4308 40.3192ZM27.9888 10.0045C29.6431 10.004 31.2604 10.4942 32.6361 11.4129C34.0119 12.3317 35.0842 13.6378 35.7176 15.1661C36.351 16.6943 36.5169 18.3761 36.1945 19.9986C35.872 21.6212 35.0756 23.1117 33.906 24.2816C32.7364 25.4516 31.2461 26.2484 29.6236 26.5713C28.0011 26.8942 26.3193 26.7287 24.7909 26.0957C23.2625 25.4627 21.9561 24.3907 21.0369 23.0152C20.1178 21.6398 19.6272 20.0226 19.6272 18.3683C19.6278 16.1506 20.5089 14.024 22.0768 12.4556C23.6447 10.8873 25.7712 10.0056 27.9888 10.0045ZM44.9688 40.6295C44.9688 41.7774 44.5132 42.8784 43.7021 43.6907C42.8911 44.503 41.7908 44.9603 40.6429 44.9621H6.26786L6.29911 44.933C6.4862 44.7425 6.61962 44.5059 6.68587 44.2472C6.75211 43.9885 6.74883 43.7169 6.67634 43.4598L15.125 34.7545C15.3862 34.8147 15.6585 34.8067 15.9157 34.7312C16.173 34.6558 16.4064 34.5154 16.5937 34.3237C16.7246 34.1836 16.8276 34.02 16.8973 33.8415C18.25 33.6607 20.4219 33.6964 23.683 34.5848C28.75 35.9621 33.558 31.7121 35.3527 29.8616L42.5402 22.4509C43.7445 21.2132 44.5867 19.6692 44.9754 17.9866L44.9688 40.6295ZM44.9688 13.6406C44.5574 11.8558 43.6388 10.228 42.3237 8.95313L39.5737 6.29911L36.8237 3.62054C35.9781 2.79931 34.9873 2.14233 33.9018 1.68304H40.6429C41.7904 1.68422 42.8906 2.14059 43.702 2.95202C44.5134 3.76344 44.9698 4.86363 44.971 6.01116L44.9688 13.6406Z" fill="black"/>
<path d="M23.1274 23.973C22.9913 24.1962 23.4064 24.6985 24.0493 25.069C24.6922 25.4395 25.3261 25.5534 25.46 25.3212C25.5939 25.0891 25.1832 24.598 24.5381 24.2253C23.8931 23.8525 23.2614 23.7409 23.1274 23.973Z" fill="black"/>
<path d="M28.0536 11.5824C28.7969 11.5824 29.3929 11.3592 29.3929 11.0958C29.3929 10.8324 28.788 10.6069 28.0536 10.6069C27.3193 10.6069 26.7144 10.8301 26.7144 11.0958C26.7144 11.3614 27.3103 11.5824 28.0536 11.5824Z" fill="black"/>
<path d="M26.6427 14.9155C27.165 14.6789 27.4262 14.1343 27.2298 13.699C27.0333 13.2637 26.4485 13.103 25.9284 13.3396C25.4083 13.5762 25.1427 14.1209 25.3414 14.5561C25.54 14.9914 26.1338 15.1588 26.6427 14.9155Z" fill="black"/>
</svg>
