<svg width="252" height="130" viewBox="0 0 252 130" fill="none" xmlns="http://www.w3.org/2000/svg">
<path d="M138.408 36.0296C137.712 36.7111 137.61 37.7368 138.179 38.3204C138.748 38.904 139.774 38.8206 140.474 38.1356C141.173 37.4505 141.271 36.4283 140.702 35.8484C140.133 35.2684 139.104 35.3482 138.408 36.0296Z" fill="white"/>
<path d="M145.073 35.3475C144.642 36.54 144.638 37.631 145.073 37.7869C145.508 37.9427 146.204 37.1054 146.639 35.9165C147.074 34.7276 147.074 33.633 146.639 33.4735C146.204 33.314 145.523 34.1549 145.073 35.3475Z" fill="white"/>
<path d="M146.183 27.1738C146.578 26.9419 146.386 25.869 145.755 24.7707C145.124 23.6724 144.284 22.9584 143.888 23.1976C143.493 23.4368 143.682 24.5025 144.316 25.6007C144.95 26.699 145.784 27.4022 146.183 27.1738Z" fill="white"/>
<path d="M134.243 29.5225C133.894 29.5225 133.553 29.626 133.263 29.82C132.972 30.0139 132.746 30.2896 132.612 30.6122C132.479 30.9347 132.444 31.2896 132.512 31.632C132.58 31.9745 132.748 32.289 132.995 32.5359C133.242 32.7827 133.556 32.9509 133.899 33.019C134.241 33.0871 134.596 33.0521 134.919 32.9185C135.241 32.7849 135.517 32.5587 135.711 32.2684C135.905 31.9781 136.008 31.6368 136.008 31.2877C136.008 31.0559 135.963 30.8263 135.874 30.6122C135.785 30.398 135.655 30.2034 135.491 30.0395C135.328 29.8756 135.133 29.7455 134.919 29.6568C134.705 29.5681 134.475 29.5225 134.243 29.5225Z" fill="white"/>
<path d="M121.619 31.074C121.165 31.1538 120.977 32.2303 121.198 33.4772C121.419 34.724 121.963 35.6737 122.416 35.594C122.869 35.5142 123.054 34.4377 122.833 33.1908C122.612 31.9439 122.068 30.9943 121.619 31.074Z" fill="white"/>
<path d="M133.29 37.5257C132.318 37.4314 131.477 38.0114 131.39 38.8233C131.303 39.6352 132.032 40.3674 133.003 40.4616C133.975 40.5559 134.816 39.9759 134.903 39.164C134.99 38.3521 134.261 37.6199 133.29 37.5257Z" fill="white"/>
<path d="M140.553 31.1471C140.626 32.1185 141.347 32.8543 142.159 32.7927C142.971 32.7311 143.569 31.8901 143.493 30.9187C143.417 29.9473 142.699 29.2115 141.887 29.2731C141.075 29.3348 140.477 30.1757 140.553 31.1471Z" fill="white"/>
<path d="M138.096 42.1946C136.907 42.6296 136.066 43.3291 136.226 43.7605C136.385 44.1918 137.473 44.1882 138.665 43.7605C139.858 43.3327 140.695 42.6259 140.539 42.1946C140.383 41.7633 139.289 41.7633 138.096 42.1946Z" fill="white"/>
<path d="M123.344 24.9956C123.706 25.2892 124.638 24.7418 125.453 23.7704C126.269 22.799 126.646 21.7732 126.294 21.4796C125.943 21.186 124.997 21.7334 124.181 22.7048C123.365 23.6762 122.992 24.6838 123.344 24.9956Z" fill="white"/>
<path d="M125.428 28.4755C125.163 29.4143 125.587 30.3531 126.374 30.5706C127.16 30.7881 128.005 30.2081 128.266 29.2657C128.527 28.3233 128.106 27.3881 127.32 27.1707C126.533 26.9532 125.689 27.5331 125.428 28.4755Z" fill="white"/>
<path d="M126.639 33.9445C125.964 34.4049 125.87 35.4306 126.421 36.2353C126.972 37.04 127.962 37.3227 128.632 36.8551C129.303 36.3875 129.404 35.3726 128.853 34.568C128.302 33.7633 127.309 33.4842 126.639 33.9445Z" fill="white"/>
<path d="M138.19 26.3658C138.981 26.9313 140.003 26.8552 140.485 26.1918C140.967 25.5285 140.699 24.5354 139.905 23.9663C139.111 23.3972 138.093 23.477 137.61 24.1367C137.128 24.7964 137.397 25.7968 138.19 26.3658Z" fill="white"/>
<path d="M155.788 0H96.8438C94.1257 0.00383755 91.5202 1.08553 89.5985 3.00784C87.6769 4.93014 86.5961 7.53611 86.5933 10.2542V69.1984C86.6 71.915 87.6821 74.5184 89.603 76.4393C91.5239 78.3602 94.1273 79.4423 96.8438 79.449H155.788C158.506 79.4461 161.112 78.3653 163.034 76.4437C164.957 74.5221 166.038 71.9165 166.042 69.1984V10.2542C166.039 7.53548 164.958 4.92896 163.036 3.00656C161.113 1.08415 158.507 0.00287845 155.788 0ZM92.4253 68.6547C91.9832 68.5462 91.5202 68.5561 91.0831 68.6833C90.6459 68.8106 90.25 69.0508 89.9352 69.3797C89.7712 69.5492 89.6298 69.7393 89.5147 69.9451C89.4899 69.6982 89.4778 69.4502 89.4785 69.2021V10.2542C89.4804 8.30102 90.2569 6.42837 91.6376 5.04694C93.0184 3.66552 94.8907 2.88811 96.8438 2.88523H131.619C129.629 3.72665 127.828 4.95925 126.323 6.50989L114.083 19.1382C111.027 22.2881 104.039 30.69 106.645 39.2406C108.334 44.7646 108.501 48.4618 108.258 50.7707C107.688 51.0189 107.227 51.4651 106.961 52.0268C106.694 52.5885 106.64 53.2277 106.808 53.8263L92.4253 68.6547ZM134.243 17.0468C137.06 17.0468 139.813 17.882 142.155 19.4469C144.497 21.0117 146.322 23.2359 147.4 25.8382C148.478 28.4404 148.76 31.3039 148.211 34.0664C147.661 36.829 146.305 39.3665 144.313 41.3582C142.322 43.3499 139.784 44.7062 137.021 45.2558C134.259 45.8053 131.395 45.5232 128.793 44.4453C126.191 43.3675 123.967 41.5421 122.402 39.2001C120.837 36.8582 120.002 34.1048 120.002 31.2881C120.002 27.5111 121.502 23.8887 124.173 21.218C126.844 18.5472 130.466 17.0468 134.243 17.0468ZM163.157 69.1984C163.154 71.1516 162.377 73.0239 160.995 74.4046C159.614 75.7854 157.741 76.5619 155.788 76.5638H97.2389L97.2933 76.5166C97.611 76.1909 97.8378 75.7875 97.951 75.3468C98.0642 74.906 98.0599 74.4433 97.9385 74.0048L112.321 59.1763C112.765 59.2824 113.229 59.2714 113.667 59.1443C114.106 59.0172 114.504 58.7784 114.822 58.4513C115.048 58.2137 115.225 57.9342 115.344 57.6285C117.646 57.324 121.343 57.382 126.896 58.8935C135.526 61.2423 143.711 54.0039 146.766 50.854L159.007 38.2366C161.054 36.1312 162.488 33.5069 163.153 30.6465L163.157 69.1984ZM163.157 23.2377C162.456 20.2007 160.891 17.4314 158.652 15.2635L153.968 10.7254L149.285 6.19817C147.847 4.79895 146.161 3.68033 144.312 2.89973H155.788C157.742 2.90165 159.615 3.67863 160.997 5.06016C162.378 6.44169 163.155 8.3149 163.157 10.2687V23.2377Z" fill="white"/>
<path d="M125.95 40.8241C125.718 41.2192 126.425 42.0565 127.519 42.6908C128.614 43.3251 129.694 43.5136 129.922 43.1185C130.151 42.7234 129.448 41.8861 128.353 41.2518C127.258 40.6175 126.193 40.4254 125.95 40.8241Z" fill="white"/>
<path d="M134.352 19.7216C135.62 19.7216 136.646 19.3592 136.646 18.8916C136.646 18.424 135.62 18.0615 134.352 18.0615C133.083 18.0615 132.057 18.424 132.057 18.8916C132.057 19.3592 133.087 19.7216 134.352 19.7216Z" fill="white"/>
<path d="M131.952 25.409C132.841 25.0067 133.286 24.0788 132.949 23.3393C132.612 22.5999 131.619 22.3208 130.735 22.7268C129.85 23.1327 129.397 24.057 129.734 24.7965C130.071 25.5359 131.064 25.815 131.952 25.409Z" fill="white"/>
<path d="M12.8966 119.288H8.00326V129.727H0V100.439H12.8966C20.1241 100.439 24.0098 105.05 24.0098 109.864C24.0098 114.677 20.1096 119.288 12.8966 119.288ZM12.5341 106.902H8.00326V112.825H12.5305C14.727 112.825 16.0065 111.375 16.0065 109.864C16.0065 108.352 14.727 106.891 12.5305 106.891L12.5341 106.902Z" fill="white"/>
<path d="M26.8442 129.727V100.439H34.8475V129.727H26.8442Z" fill="white"/>
<path d="M50.8976 129.977C47.1025 129.977 44.2209 128.821 41.8359 126.682C38.407 123.598 38.5447 119.48 38.5447 115.083C38.5447 110.687 38.407 106.566 41.8359 103.485C44.2137 101.346 47.0953 100.193 50.8976 100.193C57.0595 100.193 62.0579 103.278 63.2468 109.741H55.1058C54.602 108.095 53.5979 106.613 50.9447 106.613C49.4948 106.613 48.382 107.145 47.7912 107.849C47.0663 108.711 46.5552 109.741 46.5552 115.098C46.5552 120.455 47.059 121.474 47.7912 122.347C48.382 123.047 49.4803 123.58 50.9447 123.58C53.5979 123.58 54.602 122.101 55.1058 120.452H63.2432C62.0579 126.9 57.0812 129.977 50.8976 129.977Z" fill="white"/>
<path d="M83.7804 129.727L76.2919 117.711L73.548 120.553V129.727H65.6245V100.439H73.5335V110.81L82.9577 100.439H92.7442L81.631 112.292L93.1067 129.738L83.7804 129.727Z" fill="white"/>
<path d="M94.5713 129.727V100.439H102.575V123.318H116.25V129.727H94.5713Z" fill="white"/>
<path d="M119.081 129.727V100.439H141.217V106.859H127.081V111.756H139.154V118.164H127.084V123.307H141.221V129.727H119.081Z" fill="white"/>
<path d="M145.479 129.727V125.12L159.38 105.547H146.074V100.439H166.879V104.967L152.932 124.634H166.879V129.727H145.479Z" fill="white"/>
<path d="M190.248 126.848C188.008 128.864 185.126 129.976 181.65 129.976C178.174 129.976 175.34 128.864 173.1 126.848C169.899 123.967 169.942 120.715 169.942 115.079C169.942 109.443 169.899 106.188 173.1 103.31C175.34 101.294 178.174 100.182 181.65 100.182C185.126 100.182 188.008 101.294 190.248 103.31C193.448 106.188 193.358 109.439 193.358 115.079C193.358 120.719 193.448 123.967 190.248 126.848ZM186.5 105.985C185.155 104.816 183.433 104.172 181.652 104.172C179.87 104.172 178.149 104.816 176.804 105.985C175.202 107.547 174.883 109.193 174.883 115.079C174.883 120.965 175.202 122.607 176.804 124.17C178.149 125.338 179.87 125.982 181.652 125.982C183.433 125.982 185.155 125.338 186.5 124.17C188.098 122.607 188.421 120.962 188.421 115.079C188.421 109.196 188.098 107.547 186.5 105.985Z" fill="white"/>
<path d="M220.064 129.727L202.792 106.239V129.727H199.316V100.439H202.611L219.897 123.851V100.439H223.373V129.727H220.064Z" fill="white"/>
<path d="M231.268 100.439H251.026V102.415H233.736V113.978H248.463V115.953H233.736V127.766H251.026V129.738H231.268V100.439Z" fill="white"/>
</svg>
